<svg width="248" height="142" viewBox="0 0 248 142" fill="none" xmlns="http://www.w3.org/2000/svg">
<rect x="86.5" width="71" height="71" fill="#068A2D"/>
<path d="M144.6 42.1649C144.481 41.8876 144.193 41.7185 143.892 41.7555L135.184 42.8015L131.729 40.8073L138.271 38.5146C138.625 38.3905 138.813 38.0022 138.689 37.6456C138.565 37.2916 138.176 37.1014 137.82 37.2282L130.173 39.9092L128.326 38.8447V32.8145L130.239 31.7104L137.753 34.46C137.83 34.4891 137.909 34.5023 137.988 34.5023C138.266 34.5023 138.527 34.3306 138.628 34.0559C138.757 33.702 138.575 33.311 138.221 33.1816L131.776 30.8255L135.183 28.8576L143.892 29.9036C143.918 29.9063 143.947 29.9089 143.974 29.9089C144.243 29.9089 144.491 29.7478 144.6 29.4968L148.139 21.2243C148.224 21.0262 148.211 20.8017 148.102 20.6142C147.994 20.4293 147.806 20.3051 147.592 20.2787L138.659 19.2064C138.358 19.1667 138.07 19.3358 137.951 19.6158L134.502 27.68L131.047 29.6742L132.33 22.8623C132.399 22.4925 132.156 22.1359 131.786 22.0672C131.417 21.9986 131.06 22.2416 130.991 22.6114L129.488 30.5748L127.642 31.6393L122.423 28.6255V26.4174L128.561 21.2852C128.849 21.0448 128.889 20.6143 128.646 20.3237C128.405 20.0358 127.975 19.9962 127.687 20.2366L122.423 24.6397L122.425 20.7041L127.684 13.6832C127.866 13.4402 127.866 13.1074 127.684 12.867L122.288 5.66696C122.029 5.32358 121.456 5.32358 121.197 5.66696L115.801 12.867C115.618 13.11 115.618 13.4428 115.801 13.6832L121.059 20.7041V24.6925L115.803 20.1731C115.518 19.9275 115.087 19.9592 114.842 20.2471C114.596 20.5324 114.628 20.9629 114.913 21.2086L121.059 26.4913V28.6229L115.84 31.6366L113.928 30.5326L112.552 22.6509C112.488 22.2811 112.134 22.0354 111.764 22.0962C111.395 22.1622 111.146 22.5135 111.21 22.886L112.39 29.6453L108.983 27.6774L105.533 19.6132C105.415 19.3358 105.127 19.1694 104.825 19.2037L95.8923 20.2761C95.6784 20.3025 95.4908 20.4267 95.3825 20.6116C95.2743 20.7965 95.261 21.0236 95.3456 21.2217L98.885 29.4942C98.9933 29.7478 99.2416 29.9063 99.511 29.9063C99.5374 29.9063 99.5665 29.9037 99.5929 29.901L108.302 28.855L111.756 30.8492L105.214 33.1419C104.86 33.2661 104.672 33.6543 104.796 34.011C104.894 34.2909 105.158 34.4679 105.441 34.4679C105.515 34.4679 105.592 34.4547 105.665 34.4283L113.313 31.7473L115.159 32.8118V38.8368L113.247 39.9409L105.732 37.1912C105.378 37.0644 104.987 37.244 104.858 37.598C104.728 37.9519 104.911 38.3429 105.264 38.4723L111.709 40.8284L108.302 42.7963L99.596 41.7555C99.2923 41.7159 99.007 41.885 98.8881 42.165L95.3487 50.4375C95.2642 50.6356 95.2774 50.8601 95.3857 51.0476C95.494 51.2325 95.6815 51.3567 95.8954 51.3831L104.829 52.4554C104.855 52.4581 104.884 52.4607 104.91 52.4607C105.18 52.4607 105.428 52.2996 105.536 52.0487L108.986 43.9817L112.441 41.9875L111.157 48.7994C111.089 49.1692 111.332 49.5258 111.702 49.5945C111.744 49.6024 111.786 49.6077 111.828 49.6077C112.151 49.6077 112.436 49.3806 112.497 49.053L114 41.0895L115.846 40.0251L121.065 43.0388V45.247L114.927 50.3792C114.639 50.6195 114.599 51.0501 114.842 51.3406C115.083 51.6285 115.513 51.6682 115.801 51.4278L121.065 47.0247V50.9577L115.806 57.9785C115.624 58.2215 115.624 58.5544 115.806 58.7947L121.203 65.9948C121.327 66.1638 121.53 66.2642 121.744 66.2642C121.958 66.2642 122.162 66.1638 122.288 65.9921L127.685 58.7921C127.867 58.5491 127.867 58.2162 127.685 57.9759L122.426 50.955V46.9666L127.682 51.486C127.811 51.5969 127.967 51.6497 128.126 51.6497C128.319 51.6497 128.509 51.5705 128.643 51.412C128.889 51.1267 128.857 50.6962 128.572 50.4505L122.426 45.1678V43.0362L127.645 40.0225L129.557 41.1265L130.934 49.0082C130.992 49.3384 131.28 49.5735 131.605 49.5735C131.644 49.5735 131.684 49.5708 131.723 49.5629C132.093 49.4969 132.341 49.1456 132.278 48.7731L131.097 42.0139L134.505 43.9817L137.954 52.0487C138.063 52.3022 138.311 52.4607 138.58 52.4607C138.607 52.4607 138.636 52.4581 138.662 52.4554L147.595 51.3831C147.809 51.3566 147.997 51.2325 148.105 51.0476C148.214 50.8627 148.227 50.6355 148.142 50.4375L144.6 42.1649ZM139.003 20.6168L146.529 21.5201L143.549 28.4882L137.154 27.7196L141.967 24.9409C142.292 24.7533 142.405 24.336 142.215 24.0085C142.025 23.6809 141.61 23.57 141.283 23.7602L136.47 26.5389L139.003 20.6168ZM117.201 13.2767L121.745 7.2121L126.288 13.2767L122.426 18.4327V12.8726C122.426 12.4948 122.12 12.1911 121.745 12.1911C121.37 12.1911 121.063 12.4948 121.063 12.8726V18.43L117.201 13.2767ZM99.9404 28.4883L96.961 21.5202L104.486 20.6168L107.019 26.5388L102.207 23.76C101.882 23.5725 101.465 23.6834 101.274 24.0083C101.087 24.3332 101.198 24.7506 101.523 24.9407L106.335 27.7195L99.9404 28.4883ZM104.486 51.0406L96.9609 50.1373L99.9403 43.1691L106.335 43.9378L101.522 46.7165C101.198 46.904 101.084 47.3214 101.274 47.6489C101.401 47.8681 101.631 47.9896 101.866 47.9896C101.982 47.9896 102.098 47.9606 102.207 47.8972L107.019 45.1185L104.486 51.0406ZM126.288 58.3834L121.745 64.448L117.202 58.3834L121.063 53.2274V58.7849C121.063 59.1626 121.37 59.4663 121.745 59.4663C122.12 59.4663 122.426 59.1626 122.426 58.7849V53.2274L126.288 58.3834ZM126.964 38.8428L121.745 41.8566L116.525 38.8428V32.8152L121.745 29.8014L126.964 32.8152V38.8428ZM139.004 51.0406L136.471 45.1187L141.283 47.8974C141.392 47.9581 141.508 47.9898 141.624 47.9898C141.859 47.9898 142.089 47.8683 142.216 47.6491C142.403 47.3242 142.292 46.9069 141.967 46.7167L137.155 43.938L143.549 43.1693L146.529 50.1375L139.004 51.0406Z" fill="white"/>
<path d="M37.2363 111.998H41.5723C44.2871 111.998 45.6445 112.955 45.6445 114.869C45.6445 116.158 45.166 117.174 44.209 117.916C43.252 118.639 41.9238 119 40.2246 119H34.3652L32.1973 124.391C29.834 130.348 27.3633 134.547 24.7852 136.988C22.207 139.449 18.9941 140.68 15.1465 140.68C11.5137 140.68 8.47656 139.469 6.03516 137.047C3.61328 134.645 2.40234 131.637 2.40234 128.023C2.40234 122.32 5.13672 117.926 10.6055 114.84C13.9453 112.984 18.5352 112.057 24.375 112.057L29.0332 111.998L30.0293 109.508C28.5449 110.055 27.0312 110.328 25.4883 110.328C22.5 110.328 20.0879 109.293 18.252 107.223C16.416 105.133 15.498 102.389 15.498 98.9902H11.4551H10.6934C8.50586 98.9902 7.41211 98.0625 7.41211 96.207C7.41211 95.0156 7.85156 94.0195 8.73047 93.2188C9.62891 92.3984 10.7324 91.9883 12.041 91.9883H12.8027H17.0508C19.1797 87.75 21.8652 84.4297 25.1074 82.0273C28.3691 79.625 31.8066 78.4238 35.4199 78.4238C38.4082 78.4238 40.8398 79.3027 42.7148 81.0605C44.6094 82.8184 45.5566 85.084 45.5566 87.8574C45.5566 91.7637 43.8086 94.7715 40.3125 96.8809C37.9883 98.2871 34.4922 98.9902 29.8242 98.9902H23.1445V99.5762C23.1445 102.076 24.6094 103.326 27.5391 103.326C28.8477 103.326 30.1855 102.936 31.5527 102.154L33.1055 101.246C34.4531 100.465 35.6055 100.074 36.5625 100.074C37.6367 100.074 38.5254 100.396 39.2285 101.041C39.9316 101.686 40.2832 102.516 40.2832 103.531C40.2832 104.156 40.0098 105.143 39.4629 106.49L37.2363 111.998ZM26.1914 119C22.0703 119 18.916 119.391 16.7285 120.172C14.6973 120.895 13.0957 121.93 11.9238 123.277C10.752 124.645 10.166 126.148 10.166 127.789C10.166 129.312 10.6641 130.602 11.6602 131.656C12.6758 132.711 13.916 133.238 15.3809 133.238C17.1582 133.238 18.7598 132.447 20.1855 130.865C21.6309 129.283 23.0664 126.725 24.4922 123.189L26.1914 119ZM25.2832 91.9883H30.9668C35.8105 91.9883 38.2324 90.6699 38.2324 88.0332C38.2324 87.252 37.9102 86.6074 37.2656 86.0996C36.6406 85.5723 35.8398 85.3086 34.8633 85.3086C33.3594 85.3086 31.748 85.9043 30.0293 87.0957C28.3301 88.2871 26.748 89.918 25.2832 91.9883ZM53.4539 103.004L52.4578 105.465C51.5594 107.652 50.3875 108.746 48.9422 108.746C48.0633 108.746 47.3309 108.482 46.7449 107.955C46.159 107.428 45.866 106.773 45.866 105.992C45.866 105.543 46.0809 104.781 46.5105 103.707L49.8211 95.5332C50.6219 93.5605 51.7547 92.5742 53.2195 92.5742C54.6648 92.5742 55.5535 93.2578 55.8855 94.625L56.1199 95.5332C56.2371 96.002 56.4129 96.2949 56.6473 96.4121C56.8816 96.5293 57.4578 96.5879 58.3758 96.5879H65.2313C67.7898 96.5879 69.0691 97.4863 69.0691 99.2832C69.0691 101.764 67.448 103.004 64.2059 103.004L63.8836 103.297C60.7781 106.266 59.2254 108.561 59.2254 110.182C59.2254 111.803 60.1238 112.613 61.9207 112.613H65.6121C68.0926 112.613 69.3328 113.473 69.3328 115.191C69.3328 116.402 68.8934 117.34 68.0145 118.004C67.1551 118.668 65.9441 119 64.3816 119H58.6395C56.6863 119 55.0848 118.326 53.8348 116.979C52.6043 115.631 51.9891 113.883 51.9891 111.734C51.9891 110.367 52.3211 109.039 52.9852 107.75C53.6492 106.461 54.8211 104.879 56.5008 103.004H53.4539ZM75.8531 110.416C75.8531 111.881 76.9566 112.613 79.1637 112.613H87.8648C90.3258 112.613 91.5563 113.482 91.5563 115.221C91.5563 116.412 91.1168 117.34 90.2379 118.004C89.3785 118.668 88.1676 119 86.6051 119H78.3141C75.2281 119 72.8746 118.238 71.2535 116.715C69.652 115.191 68.8512 112.965 68.8512 110.035C68.8512 106.266 70.1207 103.014 72.6598 100.279C75.2184 97.5449 78.2555 96.1777 81.7711 96.1777C84.3297 96.1777 86.3805 96.8516 87.9234 98.1992C89.4859 99.5273 90.2672 101.285 90.2672 103.473C90.2672 106.109 89.193 108.062 87.0445 109.332C85.8531 110.055 84.0758 110.416 81.7125 110.416H75.8531ZM77.2594 105.084H80.482C82.5719 105.084 83.5875 104.625 83.5289 103.707C83.4703 102.672 82.7965 102.154 81.5074 102.154C79.7105 102.154 78.2945 103.131 77.2594 105.084ZM97.9008 110.416C97.9008 111.881 99.0043 112.613 101.211 112.613H109.912C112.373 112.613 113.604 113.482 113.604 115.221C113.604 116.412 113.164 117.34 112.286 118.004C111.426 118.668 110.215 119 108.653 119H100.362C97.2758 119 94.9223 118.238 93.3012 116.715C91.6996 115.191 90.8988 112.965 90.8988 110.035C90.8988 106.266 92.1684 103.014 94.7074 100.279C97.266 97.5449 100.303 96.1777 103.819 96.1777C106.377 96.1777 108.428 96.8516 109.971 98.1992C111.534 99.5273 112.315 101.285 112.315 103.473C112.315 106.109 111.241 108.062 109.092 109.332C107.901 110.055 106.123 110.416 103.76 110.416H97.9008ZM99.307 105.084H102.53C104.62 105.084 105.635 104.625 105.577 103.707C105.518 102.672 104.844 102.154 103.555 102.154C101.758 102.154 100.342 103.131 99.307 105.084ZM134.626 112.613H138.142C140.622 112.613 141.863 113.482 141.863 115.221C141.863 116.412 141.423 117.34 140.544 118.004C139.665 118.668 138.454 119 136.911 119H130.788C129.597 119 128.591 118.639 127.771 117.916C126.97 117.193 126.57 116.285 126.57 115.191C126.57 114.527 126.843 113.531 127.39 112.203L129.968 105.816C130.241 105.152 130.388 104.615 130.407 104.205C130.427 103.736 130.232 103.336 129.821 103.004C129.431 102.672 128.923 102.506 128.298 102.506C126.286 102.506 124.665 104.02 123.435 107.047L119.978 115.543C118.943 118.121 117.4 119.41 115.349 119.41C114.509 119.41 113.796 119.156 113.21 118.648C112.624 118.141 112.331 117.516 112.331 116.773C112.331 116.227 112.488 115.572 112.8 114.811L113.122 114.02L119.04 99.4297C119.802 97.5352 121.101 96.5879 122.937 96.5879C124.441 96.5879 125.515 97.252 126.159 98.5801C128.249 96.9785 130.241 96.1777 132.136 96.1777C133.972 96.1777 135.486 96.7051 136.677 97.7598C137.868 98.8145 138.464 100.152 138.464 101.773C138.464 102.672 138.249 103.658 137.82 104.732L134.626 112.613ZM150.932 104.586L150.375 105.934C149.516 107.867 148.295 108.834 146.713 108.834C145.912 108.834 145.189 108.561 144.545 108.014C143.92 107.447 143.607 106.803 143.607 106.08C143.607 105.396 143.891 104.488 144.457 103.355L148.354 95.4453C149.311 93.5508 150.502 92.6035 151.928 92.6035C152.689 92.6035 153.344 92.8574 153.891 93.3652C154.438 93.8535 154.711 94.4395 154.711 95.123C154.711 95.2988 154.652 95.6797 154.535 96.2656C154.457 96.6953 154.418 97.0762 154.418 97.4082C154.418 98.6387 154.877 99.8984 155.795 101.188L157.465 103.502C159.164 105.865 160.014 108.15 160.014 110.357C160.014 112.818 159.096 114.879 157.26 116.539C155.424 118.18 153.139 119 150.404 119H144.281C141.801 119 140.561 118.141 140.561 116.422C140.561 115.23 141 114.303 141.879 113.639C142.758 112.955 143.969 112.613 145.512 112.613H148.91C151.625 112.613 152.982 111.627 152.982 109.654C152.982 108.932 152.729 108.082 152.221 107.105L150.932 104.586ZM182.061 112.613H185.577C188.057 112.613 189.298 113.482 189.298 115.221C189.298 116.412 188.858 117.34 187.979 118.004C187.1 118.668 185.889 119 184.346 119H178.223C177.032 119 176.026 118.639 175.206 117.916C174.405 117.193 174.005 116.285 174.005 115.191C174.005 114.527 174.278 113.531 174.825 112.203L177.403 105.816C177.677 105.152 177.823 104.615 177.843 104.205C177.862 103.736 177.667 103.336 177.257 103.004C176.866 102.672 176.358 102.506 175.733 102.506C173.721 102.506 172.1 104.02 170.87 107.047L167.413 115.543C166.378 118.121 164.835 119.41 162.784 119.41C161.944 119.41 161.231 119.156 160.645 118.648C160.059 118.141 159.766 117.516 159.766 116.773C159.766 116.227 159.923 115.572 160.235 114.811L160.557 114.02L166.475 99.4297C167.237 97.5352 168.536 96.5879 170.372 96.5879C171.876 96.5879 172.95 97.252 173.595 98.5801C175.684 96.9785 177.677 96.1777 179.571 96.1777C181.407 96.1777 182.921 96.7051 184.112 97.7598C185.304 98.8145 185.899 100.152 185.899 101.773C185.899 102.672 185.684 103.658 185.255 104.732L182.061 112.613ZM202.175 96.1777C205.007 96.1777 207.332 97.0762 209.148 98.873C210.984 100.67 211.902 102.955 211.902 105.729C211.902 107.818 211.423 109.898 210.466 111.969C209.509 114.02 208.269 115.66 206.746 116.891C205.73 117.691 204.675 118.248 203.582 118.561C202.507 118.854 200.994 119 199.041 119C195.857 119 193.709 118.619 192.595 117.857C189.978 116.061 188.67 113.404 188.67 109.889C188.67 106.178 190.007 102.965 192.683 100.25C195.359 97.5352 198.523 96.1777 202.175 96.1777ZM201.472 102.418C200.027 102.418 198.709 103.131 197.517 104.557C196.326 105.982 195.73 107.555 195.73 109.273C195.73 111.539 197 112.672 199.539 112.672C201.023 112.672 202.166 112.213 202.966 111.295C204.295 109.791 204.959 108.072 204.959 106.139C204.959 105.025 204.636 104.127 203.992 103.443C203.347 102.76 202.507 102.418 201.472 102.418ZM233.041 108.102L239.926 99.1367L240.483 98.4336C241.635 96.9297 242.905 96.1777 244.291 96.1777C245.17 96.1777 245.893 96.4707 246.459 97.0566C247.026 97.623 247.309 98.3457 247.309 99.2246C247.309 100.143 246.713 101.354 245.522 102.857L234.536 116.686C233.09 118.502 231.596 119.41 230.053 119.41C228.784 119.41 227.709 118.932 226.83 117.975C225.952 117.018 225.512 115.846 225.512 114.459C225.512 114.107 225.541 113.746 225.6 113.375L226.567 108.102L220.59 116.686C219.34 118.502 217.954 119.41 216.43 119.41C215.121 119.41 214.047 118.902 213.207 117.887C212.368 116.871 211.948 115.562 211.948 113.961C211.948 113.727 211.957 113.531 211.977 113.375L212.797 101.1C212.914 99.5176 213.325 98.3066 214.028 97.4668C214.75 96.6074 215.727 96.1777 216.957 96.1777C218.793 96.1777 219.711 97.1836 219.711 99.1953C219.711 99.5273 219.692 99.8984 219.653 100.309L218.832 108.512L225.366 99.166C226.752 97.1738 228.364 96.1777 230.2 96.1777C231.332 96.1777 232.231 96.5 232.895 97.1445C233.559 97.7891 233.891 98.6582 233.891 99.752C233.891 100.201 233.881 100.533 233.862 100.748L233.041 108.102Z" fill="#068A2D"/>
</svg>
